<svg width="current" height="current" viewBox="0 0 25 25" fill="none" xmlns="http://www.w3.org/2000/svg">
<path fill-rule="evenodd" clip-rule="evenodd" d="M21.1856 5.99297C21.5746 5.99297 21.8984 6.31596 21.8984 6.72696V7.10696C21.8984 7.50795 21.5746 7.84095 21.1856 7.84095H4.61229C4.2223 7.84095 3.89844 7.50795 3.89844 7.10696V6.72696C3.89844 6.31596 4.2223 5.99297 4.61229 5.99297H7.528C8.12029 5.99297 8.63574 5.57197 8.76898 4.97798L8.92167 4.29598C9.15897 3.36699 9.93993 2.75 10.8337 2.75H14.9632C15.8472 2.75 16.6369 3.36699 16.8655 4.24699L17.0289 4.97698C17.1611 5.57197 17.6766 5.99297 18.2698 5.99297H21.1856ZM19.7043 19.884C20.0087 17.0471 20.5416 10.3071 20.5416 10.2391C20.5611 10.0331 20.494 9.83813 20.3607 9.68113C20.2178 9.53413 20.0369 9.44713 19.8375 9.44713H5.96696C5.76661 9.44713 5.57599 9.53413 5.44373 9.68113C5.30951 9.83813 5.24338 10.0331 5.25311 10.2391C5.25489 10.2516 5.27402 10.489 5.30599 10.8859C5.44802 12.6492 5.84361 17.5602 6.09923 19.884C6.28012 21.596 7.40342 22.672 9.0305 22.711C10.2861 22.74 11.5796 22.75 12.9022 22.75C14.1481 22.75 15.4134 22.74 16.7078 22.711C18.3913 22.682 19.5136 21.625 19.7043 19.884Z" fill="current"/>
</svg>
