<svg width="current" height="current" viewBox="0 0 17 17" fill="none" xmlns="http://www.w3.org/2000/svg">
<path d="M2.10156 1.83203V5.83203H6.10156" stroke="current" stroke-width="1.5" stroke-linecap="round" stroke-linejoin="round"/>
<path d="M14.1016 8.49844C14.1005 7.34065 13.7645 6.2079 13.1341 5.2368C12.5036 4.26571 11.6057 3.49775 10.5486 3.02557C9.49143 2.55338 8.32026 2.39714 7.17632 2.57568C6.03238 2.75422 4.96453 3.25992 4.10156 4.03178L2.10156 5.83178M14.1016 15.1651V11.1651H10.1016" stroke="current" stroke-width="1.5" stroke-linecap="round" stroke-linejoin="round"/>
<path d="M2.10156 8.5C2.10262 9.65779 2.43863 10.7905 3.06907 11.7616C3.6995 12.7327 4.59744 13.5007 5.65457 13.9729C6.7117 14.4451 7.88286 14.6013 9.0268 14.4228C10.1707 14.2442 11.2386 13.7385 12.1016 12.9667L14.1016 11.1667" stroke="current" stroke-width="1.5" stroke-linecap="round" stroke-linejoin="round"/>
</svg>
